<?xml version="1.0" encoding="utf-8"?>
<!-- Generator: Adobe Illustrator 16.0.4, SVG Export Plug-In . SVG Version: 6.00 Build 0)  -->
<!DOCTYPE svg PUBLIC "-//W3C//DTD SVG 1.1//EN" "http://www.w3.org/Graphics/SVG/1.1/DTD/svg11.dtd">
<svg version="1.1" id="Layer_1" xmlns="http://www.w3.org/2000/svg" xmlns:xlink="http://www.w3.org/1999/xlink" x="0px" y="0px"
	 width="1173.002px" height="88.446px" viewBox="0 -12.554 1173.002 88.446" enable-background="new 0 -12.554 1173.002 88.446"
	 xml:space="preserve">
<g id="kantlinje_2_">
	
		<image overflow="visible" opacity="0.75" width="1211" height="112" xlink:href="6857B51343F87B35.png"  transform="matrix(1 0 0 1 -19.0066 -23.5618)">
	</image>
	<g>
		<path fill="#007C66" d="M1173.002,75.892V12.31c-2.621,1.299-6.519-1.688-8.763-3.094c-2.276-1.43-4.674-2.82-7.018-4.224
			c-0.056-0.04-0.189-0.073-0.205-0.119c-0.373-1.266-2.08-0.712-3.342-0.49c-2.285,0.408-4.435,1.048-6.779,1.318
			c-2.022,0.234-4.299,0.216-6.418,0.104c-3.545-0.184-7-0.68-10.527-0.783c-4.231-0.125-8.571-0.277-12.639,0.604
			c-0.369,0.079-1.004-0.032-1.432-0.132c-0.482-0.119-0.91-0.306-1.281-0.495c-2.248-1.152-5.664-1.166-8.363-1.878
			c-0.373-0.099-0.76-0.185-1.145-0.276c-2.839-0.659-2.933-0.673-2.189-1.965c0.342-0.579-0.223-0.677-1.104-0.771
			c-2.81-0.289-5.525,0.035-8.101,0.431c-3.444,0.52-6.77,1.19-10.073,1.864c-5.925,1.199-12.082,1.943-18.464,2.279
			c-3.725,0.197-7.483,0.283-11.219,0.502c-1.526,0.086-2.988,0.561-4.49,0.58c-4.381,0.053-8.75-0.039-13.133-0.072
			c-4.035-0.032-7.783-0.791-11.697-1.073c-1.914-0.14-4.2,0.407-6.116,0.837c-2.066,0.468-3.199,0.462-5.017-0.266
			c-0.91-0.36-2.053-0.696-3.194-0.797c-0.898-0.072-1.931,0.236-2.896,0.377c-2.242,0.322-4.477,0.711-6.778,0.94
			c-2.739,0.271-5.275-0.125-7.538-0.862c-1.844-0.605-3.649-1.253-5.428-1.904c-1.52-0.561-3.072-0.297-4.549-0.047
			c-0.951,0.166-1.654,0.008-2.521-0.092c-1.93-0.218-3.639-0.765-5.952-0.382c-2.8,0.461-5.83,0.638-8.806,0.823
			c-2.756,0.164-5.539,0.204-8.338,0.243c-2.106,0.033-2.865-0.35-3.045-1.391c-0.039-0.259-0.055-0.509-0.096-0.971
			c-2.355,0.606-4.383,1.182-6.504,1.661c-4.63,1.055-9.302,2.062-13.974,3.084c-0.156,0.032-0.33,0.06-0.469,0.046
			c-3.6-0.322-7.207,0.072-10.807-0.053c-3.605-0.125-7.23-0.007-10.854,0.065c-3.02,0.064-6.037,0.264-9.055,0.321
			c-3.664,0.079-7.355,0.119-11.033,0.095c-3.9-0.026-7.812-0.101-11.699-0.258c-2.315-0.098-4.576-0.428-6.877-0.605
			c-4.174-0.322-8.377-0.743-12.635-0.547c-1.144,0.054-2.203,0.449-2.08,1.121c0.15,0.877,0.469,1.746,0.633,2.623
			c0.043,0.265-0.164,0.534-0.51,0.805c-0.264-0.547-0.607-1.094-0.801-1.646c-0.166-0.483-0.771-0.534-1.57-0.423
			c-1.898,0.271-3.969,0.329-5.539,1.055c-1.641,0.758-3.527,0.58-5.359,0.104c-0.909-0.238-1.831-0.479-2.797-0.646
			c-0.758-0.132-1.739-0.462-2.096,0.33c-0.098,0.195-1.584,0.4-2.354,0.354c-4.494-0.264-8.998-0.58-13.49-0.922
			c-3.969-0.305-7.91-0.721-11.894-0.971c-3.071-0.195-6.2-0.265-9.301-0.289c-8.83-0.08-17.678-0.074-26.494-0.18
			c-8.502-0.104-17.004-0.242-25.492-0.486c-4.284-0.125-8.53-0.514-12.801-0.776c-3.815-0.238-7.676-0.375-11.449-0.72
			c-3.889-0.354-7.526-1.066-10.764-2.2c-0.772-0.263-1.981-0.408-2.92-0.362c-3.957,0.197-7.9,0.508-11.854,0.751
			c-4.012,0.245-8.036,0.456-12.141,0.688c0-0.422-0.014-0.836,0-1.252c0.027-0.5-0.109-0.783-1.516-0.619
			c-4.617,0.549-9.205,1.101-13.49,2.115c-2.287,0.547-4.688,1.008-7.082,1.442c-0.359,0.066-1.158-0.151-1.488-0.342
			c-0.813-0.469-1.641-0.521-2.715-0.219c-2.371,0.658-4.74,1.33-7.192,1.918c-1.32,0.315-1.914,0.093-1.898-0.606
			c0.012-0.484,0.164-0.974,0.271-1.566c-1.461,0.104-3.086,0.244-4.725,0.35c-5.127,0.314-10.24,0.725-15.395,0.908
			c-4.615,0.166-9.271,0.113-13.9,0.1c-1.363,0-2.701-0.231-4.08-0.303c-0.549-0.033-1.127,0.111-1.707,0.146
			c-1.559,0.092-3.262,0.383-4.658,0.186c-1.858-0.27-3.469,0.072-5.192,0.047c-3.072-0.047-6.144,0.052-9.205-0.033
			c-0.979-0.033-2.095-0.362-2.812-0.712c-1.352-0.658-3.033-0.697-4.686-0.73c-2.922-0.053-5.826-0.015-8.418,0.771
			c-0.305,0.085-0.731,0.064-1.255,0.104c-0.013-0.814-0.88-0.881-2.452-0.854c-5.096,0.094-10.194-0.071-15.279,0.079
			c-5.637,0.164-11.231,0.564-16.838,0.854c-1.971,0.099-3.941,0.185-5.981,0.276c-0.025-0.282,0.029-0.446-0.067-0.593
			c-0.18-0.305-0.468-0.594-0.7-0.885c-0.482,0.19-0.91,0.4-1.42,0.573c-2.634,0.892-5.277,1.779-8.625,2.043
			c-1.199-1.067-3.28-0.987-5.293-0.922c-8.24,0.263-16.479,0.547-24.704,0.823c-4.452,0.146-8.891,0.146-13.229,0.771
			c-3.196,0.461-6.447,0.896-9.741,1.103c-5.111,0.317-10.266,0.567-15.393,0.555c-3.374-0.007-6.751-0.589-10.152-0.798
			c-1.433-0.093-2.964,0.054-4.41,0.172c-3.059,0.25-5.992,0.295-9.096-0.146c-1.818-0.264-4.257-0.19-5.993,0.18
			c-3.54,0.75-7.304,1.101-10.953,1.642c-1.213,0.18-2.356,0.439-3.541,0.666c-0.193,0.04-0.51,0.145-0.593,0.111
			c-2.286-0.797-2.88,0.383-4.12,0.771c-3.059,0.963-6.336,1.662-9.976,1.918c-3.32,0.229-6.725,0.35-10.03-0.006
			c-1.24-0.133-2.357-0.502-3.527-0.768c-2.894-0.657-5.871-1.257-8.682-2.009c-1.253-0.336-2.329-0.917-3.168-1.482
			c-0.771-0.501-1.312-0.675-2.688-0.495c-1.973,0.25-4.051,0.285-6.077,0.438c-2.245,0.164-4.478,0.427-6.736,0.525
			c-3.32,0.146-6.656,0.244-9.99,0.265c-3.679,0.019-7.386-0.067-11.078-0.095c-2.605-0.012-5.127-0.059-7.606-0.604
			c-4.175-0.924-8.502-0.607-12.855-0.179c-3.416,0.335-6.916,0.703-10.375,0.73c-3.281,0.02-6.986,0.006-9.742-0.674
			c-6.463-1.601-12.801-1.042-19.248-0.441c-3.981,0.371-7.869,1.043-11.863,1.228c-4.078,0.186-8.421,0.296-12.194-0.612
			c-2.646-0.633-5.277-0.884-8.088-0.812c-5.167,0.133-10.32,0.338-15.488,0.562c-1.184,0.053-2.396,0.236-3.443,0.493
			c-1.213,0.297-2.329,0.258-3.637,0.172c-2.51-0.165-5.058-0.185-7.58-0.282c-0.99-0.041-1.981-0.205-2.961-0.197
			c-2.121,0.011-4.271,0-6.338,0.188c-4.121,0.39-8.156,0.97-12.277,1.345c-1.598,0.146-3.307-0.045-5.043-0.086
			c0.014,0.075,0.082,0.312,0.207,0.728c-2.012,0-3.955,0-5.912,0c-6.145-0.005-12.275-0.021-18.422-0.025
			c-0.041,0-0.108,0.027-0.149,0.021c-2.509-0.277-4.976-0.621-7.495-0.812c-2.122-0.164-4.327-0.15-6.504-0.211
			c-0.346-0.004-0.772,0.04-1.047-0.025c-2.659-0.625-5.483-0.416-8.255-0.389c-4.685,0.04-9.285-0.053-13.834-0.758
			c-2.052-0.324-4.437-0.191-6.669-0.265c-0.262-0.006-0.635,0.025-0.785-0.045c-1.256-0.594-2.315-0.409-3.473,0.098
			c-1.56,0.672-3.185,1.306-4.852,1.917c-0.771,0.283-1.709,0.365-2.122-0.195c-0.426-0.601-0.841-1.222-1.005-1.847
			c-0.208-0.752-0.056-1.522-0.264-2.272c-0.206-0.791-0.907-0.91-2.355-0.566c-5.208,1.227-10.39,2.479-15.666,3.632
			c-2.025,0.436-4.244,0.587-6.172-0.265c-0.291-0.127-0.869-0.217-1.199-0.172C78.98,9.487,74.902,9,70.906,9.205
			c-1.527,0.079-3.059,0.204-4.588,0.31c-1.198,0.079-2.272,0.204-3.319-0.321c-0.511-0.259-1.683-0.371-2.468-0.305
			c-6.559,0.527-13.104,1.152-19.676,1.653c-1.695,0.132-3.804,0.43-4.988-0.65c-0.123-0.12-0.922-0.165-1.336-0.112
			c-1.543,0.197-3.029,0.508-4.588,0.672c-2.26,0.238-4.562,0.383-6.849,0.566c-0.247,0.021-0.659,0.094-0.729,0.053
			c-1.268-0.808-2.646-0.164-3.996-0.07c-0.699,0.047-1.402,0.047-2.105,0.094c-1.64,0.104-3.268,0.21-4.905,0.329
			c-1.693,0.125-3.252,0.125-4.974-0.165C3.336,10.74,2.306,11.769-1,12.31v63.582"/>
	</g>
</g>
</svg>
