<?xml version="1.0" encoding="utf-8"?>
<!-- Generator: Adobe Illustrator 16.0.4, SVG Export Plug-In . SVG Version: 6.00 Build 0)  -->
<!DOCTYPE svg PUBLIC "-//W3C//DTD SVG 1.1//EN" "http://www.w3.org/Graphics/SVG/1.1/DTD/svg11.dtd">
<svg version="1.1" id="Layer_1" xmlns="http://www.w3.org/2000/svg" xmlns:xlink="http://www.w3.org/1999/xlink" x="0px" y="0px"
	 width="1173.002px" height="75.892px" viewBox="0 0 1173.002 75.892" enable-background="new 0 0 1173.002 75.892"
	 xml:space="preserve">
<path id="kantlinje_2_" fill="#007C66" d="M1173,75.892l0.002-63.582c-2.621,1.299-6.518-1.688-8.762-3.093
	c-2.277-1.43-4.674-2.821-7.018-4.224c-0.055-0.04-0.189-0.073-0.205-0.119c-0.373-1.266-2.08-0.712-3.342-0.49
	c-2.285,0.408-4.434,1.047-6.779,1.318c-2.023,0.234-4.299,0.216-6.418,0.104c-3.545-0.183-7-0.679-10.527-0.783
	c-4.232-0.125-8.572-0.277-12.639,0.605c-0.369,0.079-1.004-0.033-1.432-0.132c-0.482-0.119-0.91-0.306-1.281-0.495
	c-2.248-1.153-5.664-1.166-8.363-1.878c-0.373-0.099-0.76-0.185-1.145-0.277c-2.838-0.659-2.932-0.672-2.189-1.964
	c0.342-0.58-0.223-0.677-1.105-0.771c-2.809-0.289-5.525,0.035-8.1,0.431c-3.445,0.519-6.77,1.19-10.074,1.864
	c-5.924,1.199-12.082,1.943-18.463,2.279c-3.725,0.198-7.484,0.283-11.219,0.502c-1.527,0.086-2.988,0.561-4.49,0.58
	c-4.381,0.053-8.75-0.039-13.133-0.072c-4.035-0.032-7.783-0.791-11.697-1.073c-1.914-0.14-4.201,0.407-6.117,0.837
	c-2.066,0.467-3.199,0.462-5.016-0.266c-0.91-0.36-2.053-0.696-3.195-0.797c-0.898-0.072-1.93,0.237-2.895,0.377
	c-2.242,0.322-4.477,0.711-6.778,0.941c-2.74,0.271-5.276-0.125-7.538-0.863c-1.844-0.605-3.65-1.253-5.428-1.904
	c-1.52-0.561-3.072-0.297-4.549-0.047c-0.951,0.166-1.654,0.008-2.521-0.092c-1.93-0.217-3.639-0.764-5.953-0.382
	c-2.799,0.461-5.83,0.638-8.805,0.824c-2.756,0.164-5.539,0.204-8.338,0.243c-2.107,0.033-2.865-0.35-3.045-1.391
	c-0.039-0.259-0.055-0.509-0.096-0.97c-2.355,0.606-4.383,1.181-6.504,1.661c-4.629,1.054-9.301,2.062-13.973,3.084
	c-0.156,0.032-0.33,0.059-0.469,0.046c-3.6-0.323-7.207,0.072-10.807-0.053c-3.605-0.125-7.23-0.007-10.854,0.065
	c-3.02,0.065-6.037,0.264-9.055,0.322c-3.664,0.079-7.355,0.119-11.033,0.094c-3.9-0.026-7.812-0.1-11.699-0.258
	c-2.316-0.097-4.576-0.427-6.877-0.605c-4.174-0.322-8.377-0.743-12.635-0.547c-1.143,0.054-2.203,0.449-2.08,1.121
	c0.15,0.877,0.469,1.746,0.633,2.623c0.043,0.265-0.164,0.534-0.51,0.805c-0.264-0.547-0.607-1.094-0.801-1.647
	c-0.166-0.483-0.77-0.534-1.57-0.422c-1.898,0.271-3.969,0.329-5.539,1.054c-1.641,0.758-3.527,0.58-5.359,0.105
	c-0.91-0.238-1.832-0.48-2.797-0.646c-0.758-0.132-1.74-0.462-2.096,0.33c-0.098,0.196-1.584,0.401-2.355,0.355
	c-4.494-0.264-8.998-0.58-13.49-0.922c-3.969-0.305-7.91-0.721-11.893-0.971c-3.072-0.195-6.201-0.264-9.301-0.289
	c-8.83-0.08-17.678-0.074-26.494-0.179c-8.502-0.104-17.004-0.243-25.492-0.487c-4.285-0.125-8.531-0.513-12.801-0.776
	c-3.816-0.238-7.676-0.375-11.449-0.72c-3.889-0.354-7.527-1.066-10.764-2.2c-0.773-0.263-1.982-0.408-2.92-0.362
	c-3.957,0.197-7.9,0.507-11.854,0.751c-4.012,0.245-8.037,0.456-12.141,0.687c0-0.422-0.014-0.836,0-1.252
	c0.027-0.5-0.109-0.783-1.516-0.619c-4.617,0.549-9.205,1.101-13.49,2.115c-2.287,0.547-4.688,1.008-7.082,1.443
	c-0.359,0.066-1.158-0.152-1.488-0.342c-0.814-0.469-1.641-0.521-2.715-0.219c-2.371,0.658-4.74,1.33-7.193,1.918
	c-1.32,0.315-1.914,0.093-1.898-0.606c0.012-0.485,0.164-0.974,0.271-1.567c-1.461,0.105-3.086,0.244-4.725,0.35
	c-5.127,0.314-10.24,0.724-15.395,0.908c-4.615,0.166-9.271,0.113-13.9,0.1c-1.363,0-2.701-0.232-4.08-0.303
	c-0.549-0.033-1.127,0.111-1.707,0.145c-1.559,0.092-3.262,0.383-4.658,0.186c-1.859-0.27-3.469,0.072-5.193,0.047
	c-3.072-0.047-6.143,0.052-9.205-0.033c-0.979-0.034-2.094-0.363-2.811-0.712c-1.352-0.659-3.033-0.698-4.686-0.731
	c-2.922-0.053-5.826-0.014-8.418,0.771c-0.305,0.085-0.731,0.064-1.255,0.104c-0.012-0.814-0.88-0.881-2.452-0.854
	c-5.096,0.093-10.194-0.072-15.279,0.079c-5.637,0.164-11.232,0.564-16.838,0.854c-1.971,0.099-3.941,0.185-5.981,0.277
	c-0.026-0.283,0.029-0.447-0.068-0.593c-0.179-0.305-0.468-0.594-0.7-0.885c-0.482,0.191-0.91,0.401-1.42,0.573
	c-2.634,0.892-5.277,1.78-8.625,2.043c-1.199-1.067-3.28-0.987-5.293-0.922c-8.24,0.263-16.479,0.547-24.704,0.824
	c-4.452,0.146-8.891,0.146-13.229,0.771c-3.197,0.461-6.448,0.897-9.742,1.103c-5.111,0.317-10.265,0.567-15.392,0.554
	c-3.374-0.006-6.751-0.588-10.153-0.797c-1.432-0.093-2.963,0.053-4.41,0.171c-3.058,0.25-5.992,0.295-9.095-0.146
	c-1.819-0.264-4.257-0.19-5.994,0.18c-3.54,0.75-7.303,1.1-10.953,1.641c-1.213,0.18-2.356,0.44-3.541,0.666
	c-0.193,0.04-0.51,0.145-0.593,0.112c-2.286-0.797-2.88,0.382-4.12,0.771c-3.058,0.963-6.336,1.662-9.975,1.918
	c-3.321,0.229-6.725,0.35-10.031-0.006c-1.24-0.133-2.357-0.502-3.527-0.767c-2.894-0.658-5.871-1.257-8.682-2.009
	c-1.253-0.336-2.329-0.917-3.168-1.483c-0.771-0.501-1.311-0.674-2.688-0.495c-1.973,0.25-4.051,0.285-6.077,0.438
	c-2.245,0.164-4.478,0.427-6.737,0.525c-3.32,0.146-6.656,0.244-9.99,0.265c-3.679,0.018-7.386-0.068-11.078-0.095
	c-2.605-0.012-5.127-0.058-7.606-0.604c-4.175-0.924-8.502-0.608-12.856-0.179c-3.416,0.335-6.916,0.703-10.375,0.73
	c-3.281,0.02-6.986,0.006-9.742-0.673c-6.463-1.601-12.801-1.042-19.248-0.442c-3.982,0.371-7.869,1.043-11.863,1.228
	c-4.079,0.185-8.421,0.296-12.195-0.613c-2.645-0.632-5.277-0.883-8.088-0.811c-5.167,0.133-10.32,0.338-15.488,0.562
	c-1.184,0.053-2.396,0.237-3.443,0.494c-1.213,0.296-2.329,0.257-3.637,0.171c-2.51-0.165-5.058-0.184-7.58-0.282
	c-0.99-0.041-1.982-0.205-2.961-0.197c-2.121,0.011-4.271,0-6.338,0.188c-4.121,0.39-8.156,0.97-12.277,1.345
	c-1.598,0.146-3.307-0.045-5.043-0.086c0.013,0.075,0.082,0.312,0.207,0.728c-2.012,0-3.955,0-5.912,0
	c-6.145-0.005-12.276-0.021-18.422-0.026c-0.041,0-0.109,0.028-0.15,0.021c-2.508-0.278-4.975-0.621-7.495-0.812
	c-2.122-0.164-4.327-0.15-6.504-0.211c-0.345-0.004-0.772,0.04-1.047-0.025c-2.659-0.625-5.483-0.416-8.254-0.389
	c-4.685,0.04-9.286-0.052-13.834-0.758c-2.052-0.324-4.437-0.191-6.669-0.264c-0.262-0.006-0.635,0.025-0.786-0.045
	c-1.255-0.594-2.315-0.409-3.472,0.098c-1.56,0.671-3.185,1.305-4.852,1.917c-0.771,0.283-1.709,0.365-2.122-0.196
	c-0.426-0.6-0.841-1.221-1.005-1.846c-0.208-0.752-0.055-1.523-0.263-2.273c-0.206-0.791-0.908-0.91-2.356-0.566
	c-5.208,1.226-10.39,2.479-15.666,3.632c-2.025,0.435-4.244,0.586-6.172-0.265c-0.291-0.127-0.869-0.217-1.199-0.172
	c-3.996,0.541-8.074,0.054-12.07,0.259c-1.528,0.079-3.059,0.204-4.588,0.309c-1.198,0.079-2.273,0.204-3.32-0.321
	c-0.51-0.259-1.682-0.371-2.467-0.305c-6.559,0.528-13.104,1.153-19.676,1.654c-1.695,0.132-3.804,0.429-4.988-0.651
	c-0.123-0.12-0.922-0.165-1.336-0.112c-1.543,0.197-3.03,0.508-4.588,0.672c-2.26,0.238-4.562,0.383-6.849,0.566
	c-0.247,0.021-0.659,0.094-0.729,0.053c-1.268-0.808-2.646-0.164-3.996-0.07c-0.7,0.047-1.403,0.047-2.106,0.093
	c-1.64,0.104-3.267,0.21-4.905,0.33c-1.694,0.125-3.252,0.125-4.974-0.165C3.336,10.74,3.306,11.769,0,12.31v63.582"/>
</svg>
