<?xml version="1.0" encoding="utf-8"?>
<!-- Generator: Adobe Illustrator 16.0.4, SVG Export Plug-In . SVG Version: 6.00 Build 0)  -->
<!DOCTYPE svg PUBLIC "-//W3C//DTD SVG 1.1//EN" "http://www.w3.org/Graphics/SVG/1.1/DTD/svg11.dtd">
<svg version="1.1" id="Layer_1" xmlns="http://www.w3.org/2000/svg" xmlns:xlink="http://www.w3.org/1999/xlink" x="0px" y="0px"
	 width="127.56px" height="167.24px" viewBox="0 0 127.56 167.24" style="enable-background:new 0 0 127.56 167.24;"
	 xml:space="preserve">
<path style="fill:#B28978;" d="M123.92,75.62L123.92,75.62c-0.01-7.93-0.03-16.64-0.04-24h0c-0.01-6.41-0.01-12.64-0.01-15.33
	c0-4.57-7.74-3.67-7.74-3.67c-0.53,1.28-0.6,2.36-1.44,3.7c-1.03,1.65-0.14,3.07-1.57,4.71c0.28,0.89-0.29,1.64-0.48,2.67
	c-0.2,1.11,0.88,1.75-0.59,3.47c-0.71,1.13,0.03,2.16-1.29,3.65c-0.17,0.27-0.32,0.53-0.45,0.79l0.06,0h-0.06
	c-1.06,2.02-1.15,3.66-2.48,5.79c-1.28,2.05-2.43,2.94-4.63,6.14c-0.64,1.02-1.4,1.29-2.04,2.31c-0.7,1.11-1.72,1.25-2.81,1.34
	c-1.74,0.15-2.82,0.96-4.59,1.34c-1.32,0.29-2.61-0.24-4.93,0.63c-1.22-0.18-2.05,0.48-3.35,0.63c-2.03,0.21-3.7,1.65-5.33,0.63
	c-0.97-0.61-1.95,0.64-3.18,0.98c-1.47,0.41-2.3,0.02-3.78,0.36c-0.9,0.21-1.32,1.09-2.22,1.34c-0.86,0.23-1.19-0.5-1.88-0.93
	c-3.37-2.1-4.03-4.99-7.4-7.1c-0.85-0.53-1.37-0.85-2.09-1.55c-1.52-1.47-2.08-2.78-3.87-3.9c-1.08-0.68-1.02-1.88-1.66-3.02
	c-0.56-1-1.41-1.06-2.19-1.86c-0.92-0.94-1.16-2.02-1.48-3.14c-0.19-0.66-0.41-1.33-0.82-2.01c-1.35-2.26-2.16-3.64-2.96-6.3
	c-1.55-5.14-2.2-8.52-1.26-14.4c0.17-1.07,0.55-1.79,0.59-2.84c0.03-0.76-0.6-1.24-0.16-1.96c0.51-0.82-0.13-1.41,0.06-2.31
	c0.46-2.16,0.46-3.58,1.67-5.51c0.83-1.33,1.85-1.69,2.68-3.03c0.79-1.27,0.64-2.29,2.5-4.63c1.13-1.8,2.21-3.42,3.74-6.15
	c0,0-45.7-0.2-50.91-0.2c-2.46,0-3.9,1.3-3.9,4.44v44.89v0v24v0v20.09c0,2.53,2.04,3.03,2.18,2.91c0.69-0.92,4.95-2.85,5.64-3.77
	c0.46-0.69,0.69-1.85,0.92-2.77c0.23-0.92,1.62-1.62,2.31-2.08c2.31-1.85,3.7-3.7,5.55-6.24c2.77-3.47,4.85-4.39,8.32-6.47
	c0.75-0.48,1.21-1.05,1.5-1.66h0c0.97-2.05,0.17-4.65,2.3-6.6c1.85-1.62,6.14-3.76,5.45-3.76c-0.46,0-0.46-0.92-0.69-0.92
	c-1.16-0.92-2.54-1.39-3.24-2.77c-1.39-3-1.62-4.85-3.24-8.32v-1.62v-2.3c-0.92-4.62-1.62-7.17-2.31-11.79
	c-0.23-2.77-1.48-3.43-1.48-6.2c0-1.39,0.78-2.35,2.17-2.35c1.39,0,1.53,2.35,2.91,2.35c1.85,8.32,5.1,9.05,7.41,17.37
	c0.23,0.98,0.17,1.96,0.02,2.93h0c-0.3,2.01-0.95,4-0.18,6.02c1.16,3.24,3,4.39,5.32,6.7c2.77,2.77,6.2,3.74,9.67,4.9
	c3.61,1.31,6.79,3.87,9.99,6.39h0c3.56,2.8,7.14,5.56,11.4,6.53c-2.08,0.92-3.63,3-5.71,3c-6.47,0-11.48-5.56-17.96-6.26
	c-1.31,0-2.77-1.81-3.92-3.28h0c-0.47-0.61-0.89-1.15-1.23-1.49c-1.39-1.39-0.84-3.29-2.92-3.29c-3.25,0-5.34,2.33-7.41,4.78h0
	c-1.02,1.21-2.04,2.45-3.19,3.45c-1.16,0.92-2.59,2.84-3.51,4c-1.9,2.31-3.24,2.77-4.58,4.61c-1.25,1.72-1.92,3.73-3.19,5.86
	c-0.74,1.25-2.69,1.98-3.69,3.28c-0.58,0.75-0.21,2.07-0.76,2.81l104.92-0.01c1.65,0,3.57-1.42,3.56-3.84
	C123.95,91.59,123.94,84.04,123.92,75.62z"/>
<path style="fill:#B28978;" d="M105.4,26.57c-0.21-1.09,0.19-2.04-1.9-3.91c-0.55-0.74-0.03-1.81-0.56-2.58
	c-0.79-1.11-1.66-1.29-2.8-2c-2.23-1.4-4-1.26-6.23-2.65c-1.63-1.02-3.28,0.08-5.13-0.48c-2.97-0.89-4.65-2.35-7.94-1.5
	c-4.03,1.04-6.5,1.36-10.24,3.75c-1.56,1-3.23,0.12-4.27,1.79c-0.26,0.42-0.26,0.73-0.38,1.87c-0.57,0.91-1.39,0.96-1.96,1.87
	c-1.02,1.62,0.49,2.65,0.38,4.44c-0.14,2.39-1.3,4.88,0.42,5.95c1.88,1.17,0.23,4.6,2.11,5.77l1.91,1.69
	c1.42,0.89,2.53,0.84,5.15,2.97c0.66,0.41,1.16,0.48,2.72,0.22c0.86-0.42,1.44-0.34,2.31-0.54c1.17-0.29,1.85,0.04,2.99-0.36
	c0.66-0.23,0.9-1.01,2.66-2.05c1.75-0.08,2.69-1.69,4.12-3.12c0.71-0.7,1.53-0.56,2.07-1.43c0.36-0.58-0.15-0.99-0.11-3.29
	c-1.33-0.83-2.56-0.36-3.89-1.19c-1.44-0.9-3.2,1.22-4.64,0.32c-2.32-1.45-4.8,0.22-8.15-2.12c-1.01-0.63-1.37-1.35-2.66-3.64
	c1.21-1.94,3.19-1.63,4.4-3.56c1.25-2,3.21-0.87,5.21-1.08c3.16-0.32,5.29-0.65,7.81,0.92c2.8,1.75,5.29,1.08,8.6,4.38
	c0.59,0.71,1.18,0.8,1.94,1.95c-1.65,2.87-0.05,4.85,0.49,7.73c0.24,1.23-0.76,2.16-1.52,3.38c-0.4,0.65-0.17,1.22-0.58,1.87
	c-0.74,1.18-1.82,1.09-2.72,2.14c-1.97,2.29-3.81,2.94-5.47,6.23c-0.64,1.02-1.6-0.04-2.62,0.09c-1.73,0.25-3.15,1.49-4.54,0.63
	c-0.7-0.44-1.43,0.21-2.26,0.56h-0.01c0,0-0.01,0-0.01,0h0.05l-0.06,0c0,0,0,0,0.01,0l-3.04,0l0,0h0.01c0,0,0,0,0.01,0l-0.04,0h0.03
	c-0.65-0.19-1.28-0.46-2.08-0.72c-0.99-0.34-1.91,0.29-4.36-1.24c-0.82-0.51-1.77,0.38-2.58-0.13c-0.78-0.49-0.69-1.42-1.47-1.91
	c-1.06-0.67-2.08-0.31-3.14-0.97c-0.94-0.59-0.19-1.98-0.37-3.2c-0.26-1.8-2-2.17-1.79-4.08l-1.99-1.24
	c-1.46-0.91-1.16-2.67-2.18-4.08c-0.86-1.22-2.38-1.21-2.57-2.84c-0.33-2.87,0.75-4.82,1.34-7.82c0.35-1.79-0.69-3,0.32-4.62
	c0.68-1.09,1.7-1.14,2.32-2.76c0.57-0.91,1.47-0.78,2.04-1.69c0.7-1.11-0.08-2.09,2.25-3.91c1.59-0.77,2.59-0.83,4.19-1.34
	c2.6-0.85,3.67-2.1,6.22-3.35c0.85-0.41,1.65-0.5,2.42-0.62c1.6-0.57,0-1.83,0-1.83s-3.89-2.03-7.63,0.08
	c-1.07,0.52-2.03,0.41-2.85,1.73c-0.89,1.42-2.17,1.18-3.54,1.87c-1.87,0.94-2.53,2.47-5.56,5.43c-0.4,0.65-0.26,1.2-0.58,1.87
	c-0.45,0.96-1.06,1.35-1.45,2.31c-0.65,1.67-1.74,3.34-0.81,4.44c-1.34,1.64-1.93,2.73-3.18,4.45c0.53,3.49-0.42,5.96,0.54,9.24
	c0.49,1.67,1.41,2.21,2.26,3.64c2.15,3.66,0.46,8.3,3.85,10.57c1.3,0.88,2.24,1.03,3.52,1.95c0.52,0.56,1.76,1.98,2.17,2.84
	c0.5,1.02-0.12,2.4,0.8,2.98c1.05,0.65,2.21-0.35,3.26,0.31c0.6,0.38,1.07,0.42,2.97,0.62c0.75,0.47,0.66,1.4,2.01,2
	c2.36,1.47,4.65,0.37,7.63-0.68c3.04-1.07,4.77-0.3,7.81-0.81c1.1-0.18,1.61-1.31,2.69-1.78c0.72-0.32,1.21,0.11,1.95-0.27
	c1.57-0.81,2.32-2.01,3.93-2.5c0.01-0.32,0.45-1.23,1.61-2.58c1.15-1.85,3.42-0.74,4.58-2.59c0.28-0.45,0.11-0.8,1.67-2.67
	c2.32-3.71,1.28-6.78,3.6-10.49C108.94,31.94,106.03,29.9,105.4,26.57z"/>
<path style="fill:#006B5A;" d="M2.11,162.58c0.35,1.35,0.28,1.81,2.01,2.14c4.01,0.73,7.54,2.09,11.76,2.09
	c9.07,0,15.43-5.02,15.43-12.41c0-7.17-4.57-9.59-11.97-12.24c-9.27-3.33-13.08-4.06-13.08-7.84s3.11-5.92,7.68-5.92
	c11.9,0,12.94,10.49,14.53,10.49c1.52,0,1.73-0.68,1.59-1.92l-0.76-7.56c-0.14-1.3,0.07-2.14-0.97-2.14c-0.9,0-2.63,0.9-3.53,0.9
	c-2.08,0-4.98-2.2-10.66-2.2c-8.1,0-13.63,4.74-13.63,11.22c0,5.92,4.08,8.12,10.03,10.27c11.14,4,15.5,4.74,15.5,9.53
	c0,4.51-4.15,7.22-9.55,7.22c-7.68,0-11.97-5.13-14.19-10.55c-0.28-0.73-0.42-1.24-1.52-1.24c-1.73,0-1.04,1.64-0.83,2.43
	L2.11,162.58L2.11,162.58z"/>
<path style="fill:#006B5A;" d="M54.54,132.51c0-5.36,5.19-3.33,5.19-5.25c0-0.68-0.34-0.79-2.42-0.79c-3.94,0-6.44,0.22-8.93,0.22
	c-2.42,0-5.12-0.22-7.82-0.22c-0.62,0-2.35-0.17-2.35,0.79c0,1.97,7.82,0.39,7.82,5.53v27.08c0,5.36-4.98,3.89-4.98,5.87
	c0,0.28,0.14,0.68,0.76,0.68c1.8,0,4.77-0.22,7.75-0.22c5.4,0,7.96,0.22,10.52,0.22c1.59,0,2.21-0.22,2.21-0.85
	c0-1.8-7.75,0.79-7.75-6.15V132.51L54.54,132.51z"/>
<path style="fill:#006B5A;" d="M76.66,141.03c0-0.39,0-1.41,0.48-1.41c0.28,0,0.55,0.62,0.76,0.96l13.42,24.31
	c0.35,0.62,0.69,1.58,1.73,1.58c1.11,0,1.38-0.85,1.8-1.58l13.08-22.28c1.04-1.86,1.87-2.99,2.15-2.99c0.42,0,0.48,0.85,0.55,2.54
	l1.04,17.09c0.42,6.26-4.98,4.4-4.98,6.32c0,1.02,1.73,0.85,3.18,0.85c1.59,0,3.25-0.22,7.75-0.22c2.01,0,3.95,0.22,5.95,0.22
	c2.42,0,3.32,0,3.32-0.96c0-2.09-6.37,0.4-6.71-7l-1.18-24.99c-0.28-6.49,6.5-4.29,6.5-6.32c0-0.45-0.14-0.68-2.01-0.68
	c-1.94,0-3.25,0.22-4.5,0.22c-1.04,0-2.35-0.22-4.01-0.22c-1.31,0-1.52,0.73-1.73,1.13l-16.06,27.3c-0.07,0.17-0.69,1.18-1.11,1.18
	s-0.62-0.4-0.9-0.9l-15.22-27.08c-0.97-1.69-1.66-1.63-2.42-1.63c-2.28,0-4.84,0.22-6.44,0.22c-2.21,0-3.25-0.22-4.15-0.22
	c-0.48,0-0.83,0.45-0.83,0.79c0,2.48,7.4-0.17,6.99,9.14l-0.97,22.68c-0.28,5.92-5.95,4.51-5.95,6.54c0,0.34,0.28,0.79,1.32,0.79
	c1.04,0,3.46-0.22,6.85-0.22c3.18,0,4.64,0.22,7.13,0.22c1.94,0,1.66-0.68,1.66-0.9c0-2.31-7.61,0.96-7.2-8.69L76.66,141.03
	L76.66,141.03z"/>
</svg>
